# Made using Asset Forge (www.assetforge.io) version 1.3 

mtllib roadAndSideWalk.model.mtl 

g roof_side_4

v -0.5624999 0 -0.5000001
v -0.5625001 0 0.4999999
v -0.4999999 0 -0.5625001
v -0.5000001 0 0.5624999
v 0.5000001 0 -0.5624999
v 0.4999999 0 0.5625001
v 0.5625001 0 -0.4999999
v 0.5624999 0 0.5000001
v -0.4999999 0.1 -0.5625001
v 0.5000001 0.1 -0.5624999
v -0.5624999 0.1 -0.5000001
v -0.5625001 0.1 0.4999999
v -0.5000001 0.1 0.5624999
v 0.4999999 0.1 0.5625001
v 0.4999999 0.2 0.5625001
v 0.5624999 0.2 0.5000001
v 0.5625001 0.2 -0.4999999
v 0.5000001 0.2 -0.5624999
v 0.4375 0.2 -0.4999999
v 0.4375 0.1 -0.4999999
v 0.4375 0.2 0.5
v 0.4375 0.1 0.5
vn 0 -1 0
vn 8.742278E-08 0 -1
vn -0.7071067 0 -0.7071068
vn -1 0 -8.742278E-08
vn -0.7071068 0 0.7071067
vn 0.7071067 0 0.7071068
vn 1 0 8.742278E-08
vn 0.7071068 0 -0.7071067
vn -8.742278E-08 0 1
vn 0 1 0
vt 0.5624999 0.5000001
vt 0.5625001 -0.4999999
vt 0.4999999 0.5625001
vt 0.5000001 -0.5624999
vt -0.5000001 0.5624999
vt -0.4999999 -0.5625001
vt -0.5625001 0.4999999
vt -0.5624999 -0.5000001
vt 0.4999999 0
vt -0.5000001 0
vt 0.4999999 0.1
vt -0.5000001 0.1
vt 0.5624999 0.1
vt 0.5624999 0
vt -0.5625001 0
vt -0.5625001 0.1
vt 0.4999999 0.2
vt 0.5624999 0.2
vt -0.5000001 0.2
vt -0.5625001 0.2
vt -0.4375 0.2
vt -0.4375 0.1
vt 0.5000001 0.2
vt 0.5000001 0.1
vt -0.5 0.2
vt -0.5 0.1
vt -0.4375 0.5000001
vt -0.4375 -0.5
vt -0.4999999 0.5625001
vt -0.5000001 -0.5624999
vt -0.5624999 0.5000001
vt -0.5625001 -0.4999999
vt 0.5625001 0.1
vt 0.5625001 0.2
vt 0.5625001 0.4999999
vt 0.5624999 -0.5000001
vt 0.5000001 0.5624999
vt 0.4999999 -0.5625001

usemtl stone (Instance)
usemap stone (Instance)
f 3/3/1 2/2/1 1/1/1
f 2/2/1 3/3/1 4/4/1
f 4/4/1 3/3/1 5/5/1
f 4/4/1 5/5/1 6/6/1
f 6/6/1 5/5/1 7/7/1
f 6/6/1 7/7/1 8/8/1
f 9/11/2 5/10/2 3/9/2
f 5/10/2 9/11/2 10/12/2
f 9/11/3 1/14/3 11/13/3
f 1/14/3 9/11/3 3/9/3
f 11/12/4 2/9/4 12/11/4
f 2/9/4 11/12/4 1/10/4
f 13/12/5 2/15/5 4/10/5
f 2/15/5 13/12/5 12/16/5
f 8/14/6 14/11/6 6/9/6
f 14/11/6 8/14/6 15/17/6
f 15/17/6 8/14/6 16/18/6
f 8/10/7 17/17/7 16/19/7
f 17/17/7 8/10/7 7/9/7
f 10/12/8 7/15/8 5/10/8
f 7/15/8 10/12/8 17/20/8
f 17/20/8 10/12/8 18/19/8
f 14/11/9 4/10/9 6/9/9
f 4/10/9 14/11/9 13/12/9
f 18/19/3 20/22/3 19/21/3
f 20/22/3 18/19/3 10/12/3
f 19/25/4 22/24/4 21/23/4
f 22/24/4 19/25/4 20/26/4
f 15/29/10 19/28/10 21/27/10
f 19/28/10 15/29/10 18/30/10
f 18/30/10 15/29/10 16/31/10
f 18/30/10 16/31/10 17/32/10
f 15/34/5 22/24/5 14/33/5
f 22/24/5 15/34/5 21/23/5

usemtl lightStone (Instance)
usemap lightStone (Instance)
f 13/37/10 11/36/10 12/35/10
f 11/36/10 13/37/10 9/38/10
f 9/38/10 13/37/10 22/27/10
f 22/27/10 13/37/10 14/29/10
f 20/28/10 9/38/10 22/27/10
f 9/38/10 20/28/10 10/30/10
g wall_straight_8

v -0.5000001 -0.02499986 0.5
v -1.1 -0.02499992 0.5
v -0.5000001 0.1000001 0.5625
v -1.1 0.1 0.5625
v -0.5000001 0.1000001 -0.5625
v -1.1 0.1 -0.5625
v -0.5000001 -0.02499986 -0.5
v -1.1 -0.02499992 -0.5
v -1.1 0.225 0.5
v -0.5000001 0.2250001 0.5
v -1.1 0.225 -0.5
v -0.5000001 0.2250001 -0.5
vn 1.192093E-07 -1.414214 0.7071068
vn 1.192093E-07 -1.414214 -0.7071068
vn -1.192093E-07 1.414214 0.7071068
vn -0.6000001 -5.960464E-08 0
vn 0.6000001 5.960464E-08 0
vn -1.192093E-07 1.414214 -0.7071068
vn -2.384186E-07 2 0
vn 2.384186E-07 -2 0
vt -0.5000001 -0.02499987
vt -1.1 -0.02499994
vt -0.5000001 0.1000001
vt -1.1 0.1000001
vt 0.5000001 0.1000001
vt 1.1 0.1000001
vt 0.5000001 -0.02499987
vt 1.1 -0.02499994
vt -1.1 0.2250001
vt -0.5000001 0.2250002
vt -0.5 0.2250001
vt 0.5 0.2250001
vt -0.5625 0.1000001
vt 0.5625 0.1000001
vt -0.5 -0.02499994
vt 0.5 -0.02499994
vt -0.5 0.2250002
vt 0.5 0.2250002
vt -0.5625 0.1000001
vt 0.5625 0.1000001
vt -0.5 -0.02499987
vt 0.5 -0.02499987
vt 1.1 0.2250001
vt 0.5000001 0.2250002
vt 1.1 -0.5
vt 0.5000001 -0.5
vt 1.1 0.5
vt 0.5000001 0.5
vt 1.1 0.5
vt 1.1 -0.5

usemtl stone (Instance)
usemap stone (Instance)
f 25/41/11 24/40/11 23/39/11
f 24/40/11 25/41/11 26/42/11
f 29/45/12 28/44/12 27/43/12
f 28/44/12 29/45/12 30/46/12
f 26/42/13 32/48/13 31/47/13
f 32/48/13 26/42/13 25/41/13
f 28/51/14 31/50/14 33/49/14
f 31/50/14 28/51/14 26/52/14
f 26/52/14 28/51/14 30/53/14
f 26/52/14 30/53/14 24/54/14
f 25/57/15 34/56/15 32/55/15
f 34/56/15 25/57/15 27/58/15
f 27/58/15 25/57/15 23/59/15
f 27/58/15 23/59/15 29/60/15
f 33/61/16 27/43/16 28/44/16
f 27/43/16 33/61/16 34/62/16
f 31/65/17 34/64/17 33/63/17
f 34/64/17 31/65/17 32/66/17
f 23/64/18 30/67/18 29/66/18
f 30/67/18 23/64/18 24/68/18
g roof_side_9

v 0.5625 0 0.5
v 0.5625 0 -0.5
v 0.5 0 0.5625
v 0.5 0 -0.5625
v -0.5 0 0.5625
v -0.5 0 -0.5625
v -0.5625 0 0.5
v -0.5625 0 -0.5
v 0.5 0.1 0.5625
v -0.5 0.1 0.5625
v 0.5625 0.1 0.5
v 0.5625 0.1 -0.5
v 0.5 0.1 -0.5625
v -0.5 0.1 -0.5625
v -0.5 0.2 -0.5625
v -0.5625 0.2 -0.5
v -0.5625 0.2 0.5
v -0.5 0.2 0.5625
v -0.4375 0.2 0.5
v -0.4375 0.1 0.5
v -0.4375 0.2 -0.5
v -0.4375 0.1 -0.5
vn 0 0 1
vn 0.7071068 0 0.7071068
vn 1 0 0
vn 0.7071068 0 -0.7071068
vn -0.7071068 0 -0.7071068
vn -1 0 0
vn -0.7071068 0 0.7071068
vn 0 0 -1
vt -0.5625 -0.5
vt -0.5625 0.5
vt -0.5 -0.5625
vt -0.5 0.5625
vt 0.5 -0.5625
vt 0.5 0.5625
vt 0.5625 -0.5
vt 0.5625 0.5
vt 0.5 0
vt -0.5 0
vt 0.5 0.1
vt -0.5 0.1
vt 0.5625 0.1
vt 0.5625 0
vt -0.5625 0
vt -0.5625 0.1
vt 0.5 0.2
vt 0.5625 0.2
vt -0.5 0.2
vt -0.5625 0.2
vt -0.4375 0.2
vt -0.4375 0.1
vt 0.4375 -0.5
vt 0.4375 0.5
vt 0.4375 0.1
vt 0.4375 0.2

usemtl stone (Instance)
usemap stone (Instance)
f 37/71/1 36/70/1 35/69/1
f 36/70/1 37/71/1 38/72/1
f 38/72/1 37/71/1 39/73/1
f 38/72/1 39/73/1 40/74/1
f 40/74/1 39/73/1 41/75/1
f 40/74/1 41/75/1 42/76/1
f 43/79/19 39/78/19 37/77/19
f 39/78/19 43/79/19 44/80/19
f 43/79/20 35/82/20 45/81/20
f 35/82/20 43/79/20 37/77/20
f 45/80/21 36/77/21 46/79/21
f 36/77/21 45/80/21 35/78/21
f 47/80/22 36/83/22 38/78/22
f 36/83/22 47/80/22 46/84/22
f 42/82/23 48/79/23 40/77/23
f 48/79/23 42/82/23 49/85/23
f 49/85/23 42/82/23 50/86/23
f 42/78/24 51/85/24 50/87/24
f 51/85/24 42/78/24 41/77/24
f 44/80/25 41/83/25 39/78/25
f 41/83/25 44/80/25 51/88/25
f 51/88/25 44/80/25 52/87/25
f 48/79/26 38/78/26 40/77/26
f 38/78/26 48/79/26 47/80/26
f 52/87/20 54/90/20 53/89/20
f 54/90/20 52/87/20 44/80/20
f 53/87/21 56/79/21 55/85/21
f 56/79/21 53/87/21 54/80/21
f 49/73/10 53/92/10 55/91/10
f 53/92/10 49/73/10 52/74/10
f 52/74/10 49/73/10 50/75/10
f 52/74/10 50/75/10 51/76/10
f 49/85/22 56/93/22 48/79/22
f 56/93/22 49/85/22 55/94/22

usemtl lightStone (Instance)
usemap lightStone (Instance)
f 47/71/10 45/70/10 46/69/10
f 45/70/10 47/71/10 43/72/10
f 43/72/10 47/71/10 56/91/10
f 56/91/10 47/71/10 48/73/10
f 54/92/10 43/72/10 56/91/10
f 43/72/10 54/92/10 44/74/10
g wall_straight_10

v 1.1 -0.02499986 0.5
v 0.4999998 -0.02499992 0.5
v 1.1 0.1000001 0.5625
v 0.4999998 0.1 0.5625
v 1.1 0.1000001 -0.5625
v 0.4999998 0.1 -0.5625
v 1.1 -0.02499986 -0.5
v 0.4999998 -0.02499992 -0.5
v 0.4999998 0.225 0.5
v 1.1 0.2250001 0.5
v 0.4999998 0.225 -0.5
v 1.1 0.2250001 -0.5
vt 1.1 -0.02499987
vt 0.4999998 -0.02499994
vt 1.1 0.1000001
vt 0.4999998 0.1000001
vt -1.1 0.1000001
vt -0.4999998 0.1000001
vt -1.1 -0.02499987
vt -0.4999998 -0.02499994
vt 0.4999998 0.2250001
vt 1.1 0.2250002
vt -0.4999998 0.2250001
vt -1.1 0.2250002
vt -0.4999998 -0.5
vt -1.1 -0.5
vt -0.4999998 0.5
vt -1.1 0.5

usemtl stone (Instance)
usemap stone (Instance)
f 59/97/11 58/96/11 57/95/11
f 58/96/11 59/97/11 60/98/11
f 63/101/12 62/100/12 61/99/12
f 62/100/12 63/101/12 64/102/12
f 60/98/13 66/104/13 65/103/13
f 66/104/13 60/98/13 59/97/13
f 62/51/14 65/50/14 67/49/14
f 65/50/14 62/51/14 60/52/14
f 60/52/14 62/51/14 64/53/14
f 60/52/14 64/53/14 58/54/14
f 59/57/15 68/56/15 66/55/15
f 68/56/15 59/57/15 61/58/15
f 61/58/15 59/57/15 57/59/15
f 61/58/15 57/59/15 63/60/15
f 67/105/16 61/99/16 62/100/16
f 61/99/16 67/105/16 68/106/16
f 65/109/17 68/108/17 67/107/17
f 68/108/17 65/109/17 66/110/17
f 57/108/18 64/109/18 63/110/18
f 64/109/18 57/108/18 58/107/18
g roof_side_11

v -0.5624999 0 0.4999999
v -0.5625001 0 1.5
v -0.4999999 0 0.4374999
v -0.5000001 0 1.5625
v 0.5000001 0 0.4375001
v 0.4999999 0 1.5625
v 0.5625001 0 0.5000001
v 0.5624999 0 1.5
v -0.4999999 0.1 0.4374999
v 0.5000001 0.1 0.4375001
v -0.5624999 0.1 0.4999999
v -0.5625001 0.1 1.5
v -0.5000001 0.1 1.5625
v 0.4999999 0.1 1.5625
v 0.4999999 0.2 1.5625
v 0.5624999 0.2 1.5
v 0.5625001 0.2 0.5000001
v 0.5000001 0.2 0.4375001
v 0.4375 0.2 0.5000001
v 0.4375 0.1 0.5000001
v 0.4375 0.2 1.5
v 0.4375 0.1 1.5
vt 0.5624999 -0.4999999
vt 0.5625001 -1.5
vt 0.4999999 -0.4375
vt 0.5000001 -1.5625
vt -0.5000001 -0.4375
vt -0.4999999 -1.5625
vt -0.5625001 -0.5000001
vt -0.5624999 -1.5
vt 1.5 0.1
vt 1.5 0
vt -1.5 0.2
vt -1.5 0
vt -0.4375 0
vt 1.5 0.2
vt -0.4375 1.5
vt -0.4375 0.5000001
vt -0.4999999 1.5625
vt -0.5000001 0.4375
vt -0.5624999 1.5
vt -0.5625001 0.5000001
vt 1.5625 0.1
vt 1.5625 0.2
vt 0.5625001 1.5
vt 0.5624999 0.4999999
vt 0.5000001 1.5625
vt 0.4999999 0.4375

usemtl stone (Instance)
usemap stone (Instance)
f 71/113/1 70/112/1 69/111/1
f 70/112/1 71/113/1 72/114/1
f 72/114/1 71/113/1 73/115/1
f 72/114/1 73/115/1 74/116/1
f 74/116/1 73/115/1 75/117/1
f 74/116/1 75/117/1 76/118/1
f 77/11/2 73/10/2 71/9/2
f 73/10/2 77/11/2 78/12/2
f 77/11/3 69/14/3 79/13/3
f 69/14/3 77/11/3 71/9/3
f 79/11/4 70/120/4 80/119/4
f 70/120/4 79/11/4 69/9/4
f 81/12/5 70/15/5 72/10/5
f 70/15/5 81/12/5 80/16/5
f 76/14/6 82/11/6 74/9/6
f 82/11/6 76/14/6 83/17/6
f 83/17/6 76/14/6 84/18/6
f 76/122/7 85/19/7 84/121/7
f 85/19/7 76/122/7 75/10/7
f 78/22/8 75/10/8 73/123/8
f 75/10/8 78/22/8 85/19/8
f 85/19/8 78/22/8 86/21/8
f 82/11/9 72/10/9 74/9/9
f 72/10/9 82/11/9 81/12/9
f 86/19/3 88/22/3 87/21/3
f 88/22/3 86/19/3 78/12/3
f 87/23/4 90/119/4 89/124/4
f 90/119/4 87/23/4 88/24/4
f 83/127/10 87/126/10 89/125/10
f 87/126/10 83/127/10 86/128/10
f 86/128/10 83/127/10 84/129/10
f 86/128/10 84/129/10 85/130/10
f 83/132/5 90/119/5 82/131/5
f 90/119/5 83/132/5 89/124/5

usemtl lightStone (Instance)
usemap lightStone (Instance)
f 81/135/10 79/134/10 80/133/10
f 79/134/10 81/135/10 77/136/10
f 77/136/10 81/135/10 90/125/10
f 90/125/10 81/135/10 82/127/10
f 88/126/10 77/136/10 90/125/10
f 77/136/10 88/126/10 78/128/10
g roof_side_12

v 0.5625 0 1.5
v 0.5 0 1.5625
v 0.5 0 0.4375
v -0.5 0 1.5625
v -0.5 0 0.4375
v -0.5625 0 1.5
v 0.5 0.1 1.5625
v -0.5 0.1 1.5625
v 0.5625 0.1 1.5
v 0.5 0.1 0.4375
v -0.5 0.1 0.4375
v -0.5 0.2 0.4375
v -0.5625 0.2 1.5
v -0.5 0.2 1.5625
v -0.4375 0.2 1.5
v -0.4375 0.1 1.5
vt -0.5625 -1.5
vt -0.5 -1.5625
vt -0.5 -0.4375
vt 0.5 -1.5625
vt 0.5 -0.4375
vt 0.5625 -1.5
vt -1.5 0.1
vt 0.4375 1.5
vt 0.5 0.4375
vt 0.5 1.5625
vt 0.5625 1.5
vt -0.5625 1.5
vt -0.5 0.4375
vt -0.5 1.5625

usemtl stone (Instance)
usemap stone (Instance)
f 92/138/1 35/69/1 91/137/1
f 35/69/1 92/138/1 93/139/1
f 93/139/1 92/138/1 94/140/1
f 93/139/1 94/140/1 95/141/1
f 95/141/1 94/140/1 96/142/1
f 95/141/1 96/142/1 41/75/1
f 97/79/19 94/78/19 92/77/19
f 94/78/19 97/79/19 98/80/19
f 97/79/20 91/82/20 99/81/20
f 91/82/20 97/79/20 92/77/20
f 99/143/21 35/78/21 45/80/21
f 35/78/21 99/143/21 91/122/21
f 100/80/22 35/83/22 93/78/22
f 35/83/22 100/80/22 45/84/22
f 41/82/23 101/79/23 95/77/23
f 101/79/23 41/82/23 102/85/23
f 102/85/23 41/82/23 51/86/23
f 41/77/24 103/124/24 51/85/24
f 103/124/24 41/77/24 96/120/24
f 98/80/25 96/83/25 94/78/25
f 96/83/25 98/80/25 103/88/25
f 103/88/25 98/80/25 104/87/25
f 101/79/26 93/78/26 95/77/26
f 93/78/26 101/79/26 100/80/26
f 104/87/20 106/90/20 105/89/20
f 106/90/20 104/87/20 98/80/20
f 105/121/21 54/80/21 53/87/21
f 54/80/21 105/121/21 106/143/21
f 102/145/10 105/144/10 53/92/10
f 105/144/10 102/145/10 104/146/10
f 104/146/10 102/145/10 51/76/10
f 104/146/10 51/76/10 103/147/10
f 102/85/22 54/93/22 101/79/22
f 54/93/22 102/85/22 53/94/22

usemtl lightStone (Instance)
usemap lightStone (Instance)
f 100/149/10 99/148/10 45/70/10
f 99/148/10 100/149/10 97/150/10
f 97/150/10 100/149/10 54/92/10
f 54/92/10 100/149/10 101/145/10
f 106/144/10 97/150/10 54/92/10
f 97/150/10 106/144/10 98/146/10
g wall_straight_13

v -0.5000001 -0.02499986 1.5
v -1.1 -0.02499992 1.5
v -0.5000001 0.1000001 1.5625
v -1.1 0.1 1.5625
v -0.5000001 0.1000001 0.4375
v -1.1 0.1 0.4375
v -1.1 0.225 1.5
v -0.5000001 0.2250001 1.5
vt 1.5 0.2250001
vt 0.4375 0.1000001
vt 1.5625 0.1000001
vt 1.5 -0.02499994
vt -1.5 0.2250002
vt -1.5625 0.1000001
vt -0.4375 0.1000001
vt -1.5 -0.02499987
vt 1.1 1.5
vt 0.5000001 1.5
vt 0.5000001 -1.5
vt 1.1 -1.5

usemtl stone (Instance)
usemap stone (Instance)
f 109/41/11 108/40/11 107/39/11
f 108/40/11 109/41/11 110/42/11
f 23/45/12 112/44/12 111/43/12
f 112/44/12 23/45/12 24/46/12
f 110/42/13 114/48/13 113/47/13
f 114/48/13 110/42/13 109/41/13
f 112/152/14 113/151/14 31/50/14
f 113/151/14 112/152/14 110/153/14
f 110/153/14 112/152/14 24/54/14
f 110/153/14 24/54/14 108/154/14
f 109/156/15 32/55/15 114/155/15
f 32/55/15 109/156/15 111/157/15
f 111/157/15 109/156/15 107/158/15
f 111/157/15 107/158/15 23/59/15
f 31/61/16 111/43/16 112/44/16
f 111/43/16 31/61/16 32/62/16
f 113/159/17 32/66/17 31/65/17
f 32/66/17 113/159/17 114/160/17
f 107/161/18 24/68/18 23/64/18
f 24/68/18 107/161/18 108/162/18
g wall_straight_14

v 1.1 -0.02499986 1.5
v 0.4999998 -0.02499992 1.5
v 1.1 0.1000001 1.5625
v 0.4999998 0.1 1.5625
v 1.1 0.1000001 0.4375
v 0.4999998 0.1 0.4375
v 0.4999998 0.225 1.5
v 1.1 0.2250001 1.5
vt -0.4999998 1.5
vt -1.1 1.5
vt -1.1 -1.5
vt -0.4999998 -1.5

usemtl stone (Instance)
usemap stone (Instance)
f 117/97/11 116/96/11 115/95/11
f 116/96/11 117/97/11 118/98/11
f 57/101/12 120/100/12 119/99/12
f 120/100/12 57/101/12 58/102/12
f 118/98/13 122/104/13 121/103/13
f 122/104/13 118/98/13 117/97/13
f 120/152/14 121/151/14 65/50/14
f 121/151/14 120/152/14 118/153/14
f 118/153/14 120/152/14 58/54/14
f 118/153/14 58/54/14 116/154/14
f 117/156/15 66/55/15 122/155/15
f 66/55/15 117/156/15 119/157/15
f 119/157/15 117/156/15 115/158/15
f 119/157/15 115/158/15 57/59/15
f 65/105/16 119/99/16 120/100/16
f 119/99/16 65/105/16 66/106/16
f 121/163/17 66/110/17 65/109/17
f 66/110/17 121/163/17 122/164/17
f 115/165/18 58/107/18 57/108/18
f 58/107/18 115/165/18 116/166/18
g guard_slant_23

v -0.07020004 1.081468E-13 1.466
v 0.07019998 2.278604E-14 1.466
v -0.07019998 1.081468E-13 1.034
v 0.07020004 1.354937E-14 1.034
v -0.07020003 0.11 1.376
v -0.0702 0.11 1.124
v 0.0702 0.11 1.376
v 0.07020003 0.11 1.124
v 0.07020004 0.055 1.034
v 0.07019998 0.055 1.466
v -0.07020004 0.055 1.466
v -0.07019998 0.055 1.034
vn 0 -1.1 0
vn 0 1.1 0
vn 0.6000001 0 5.960464E-08
vn -1.192093E-07 0 0.9000001
vn 1.192093E-07 0 -0.9000001
vn -0.6000001 0 -5.960464E-08
vn -5.960464E-08 0.9838699 0.4024923
vn 5.960464E-08 0.9838699 -0.4024923
vt 0.07020004 -1.466
vt -0.07019999 -1.466
vt 0.07019999 -1.034
vt -0.07020004 -1.034
vt 0.07020003 1.376
vt 0.0702 1.124
vt -0.0702 1.376
vt -0.07020003 1.124
vt -1.034 1.354937E-14
vt -1.466 2.278604E-14
vt -1.034 0.055
vt -1.466 0.055
vt -1.124 0.11
vt -1.376 0.11
vt 0.07019999 2.278604E-14
vt -0.07020004 1.081468E-13
vt 0.07019999 0.055
vt -0.07020004 0.055
vt -0.07020004 1.354937E-14
vt 0.07019999 1.081468E-13
vt 1.466 1.081468E-13
vt 1.034 1.081468E-13
vt 1.466 0.055
vt 1.034 0.055
vt 1.124 0.11
vt 1.376 0.11
vt 0.07020004 1.466
vt -0.07019999 1.466
vt 0.07019999 1.034
vt -0.07020004 1.034

usemtl customMaterial6
usemap customMaterial6
f 125/169/27 124/168/27 123/167/27
f 124/168/27 125/169/27 126/170/27
f 129/173/28 128/172/28 127/171/28
f 128/172/28 129/173/28 130/174/28
f 131/177/29 124/176/29 126/175/29
f 124/176/29 131/177/29 132/178/29
f 132/178/29 131/177/29 130/179/29
f 132/178/29 130/179/29 129/180/29
f 132/183/30 123/182/30 124/181/30
f 123/182/30 132/183/30 133/184/30
f 125/186/31 131/184/31 126/185/31
f 131/184/31 125/186/31 134/183/31
f 133/189/32 125/188/32 123/187/32
f 125/188/32 133/189/32 134/190/32
f 134/190/32 133/189/32 128/191/32
f 128/191/32 133/189/32 127/192/32
f 132/194/33 127/171/33 133/193/33
f 127/171/33 132/194/33 129/173/33
f 130/174/34 134/195/34 128/172/34
f 134/195/34 130/174/34 131/196/34
g guard_slant_24

v -0.07020004 1.081468E-13 0.966
v 0.07019998 2.278604E-14 0.966
v -0.07019998 1.081468E-13 0.534
v 0.07020004 1.354937E-14 0.534
v -0.07020003 0.11 0.876
v -0.0702 0.11 0.624
v 0.0702 0.11 0.876
v 0.07020003 0.11 0.624
v 0.07020004 0.055 0.534
v 0.07019998 0.055 0.966
v -0.07020004 0.055 0.966
v -0.07019998 0.055 0.534
vt 0.07020004 -0.966
vt -0.07019999 -0.966
vt 0.07019999 -0.534
vt -0.07020004 -0.534
vt 0.07020003 0.876
vt 0.0702 0.624
vt -0.0702 0.876
vt -0.07020003 0.624
vt -0.534 1.354937E-14
vt -0.966 2.278604E-14
vt -0.534 0.055
vt -0.966 0.055
vt -0.624 0.11
vt -0.876 0.11
vt 0.966 1.081468E-13
vt 0.534 1.081468E-13
vt 0.966 0.055
vt 0.534 0.055
vt 0.624 0.11
vt 0.876 0.11
vt 0.07020004 0.966
vt -0.07019999 0.966
vt 0.07019999 0.534
vt -0.07020004 0.534

usemtl customMaterial6
usemap customMaterial6
f 137/199/27 136/198/27 135/197/27
f 136/198/27 137/199/27 138/200/27
f 141/203/28 140/202/28 139/201/28
f 140/202/28 141/203/28 142/204/28
f 143/207/29 136/206/29 138/205/29
f 136/206/29 143/207/29 144/208/29
f 144/208/29 143/207/29 142/209/29
f 144/208/29 142/209/29 141/210/29
f 144/183/30 135/182/30 136/181/30
f 135/182/30 144/183/30 145/184/30
f 137/186/31 143/184/31 138/185/31
f 143/184/31 137/186/31 146/183/31
f 145/213/32 137/212/32 135/211/32
f 137/212/32 145/213/32 146/214/32
f 146/214/32 145/213/32 140/215/32
f 140/215/32 145/213/32 139/216/32
f 144/218/33 139/201/33 145/217/33
f 139/201/33 144/218/33 141/203/33
f 142/204/34 146/219/34 140/202/34
f 146/219/34 142/204/34 143/220/34
g guard_slant_26

v -0.07020003 1.081468E-13 0.466
v 0.07019999 2.278604E-14 0.466
v -0.07019997 1.081468E-13 0.03399996
v 0.07020005 1.354937E-14 0.03399996
v -0.07020002 0.11 0.376
v -0.07019999 0.11 0.124
v 0.0702 0.11 0.376
v 0.07020003 0.11 0.124
v 0.07020005 0.055 0.03399996
v 0.07019999 0.055 0.466
v -0.07020003 0.055 0.466
v -0.07019997 0.055 0.03399996
vt 0.07020003 -0.466
vt -0.0702 -0.4660001
vt 0.07019998 -0.03399996
vt -0.07020005 -0.03399998
vt 0.07020002 0.376
vt 0.07019999 0.124
vt -0.0702 0.376
vt -0.07020003 0.124
vt -0.03399998 1.354937E-14
vt -0.4660001 2.278604E-14
vt -0.03399998 0.055
vt -0.4660001 0.055
vt -0.124 0.11
vt -0.376 0.11
vt 0.0702 2.278604E-14
vt -0.07020003 1.081468E-13
vt 0.0702 0.055
vt -0.07020003 0.055
vt -0.07020005 1.354937E-14
vt -0.07020005 0.055
vt 0.07019998 1.081468E-13
vt 0.07019998 0.055
vt 0.466 1.081468E-13
vt 0.03399996 1.081468E-13
vt 0.466 0.055
vt 0.03399996 0.055
vt 0.124 0.11
vt 0.376 0.11
vt 0.07020003 0.466
vt -0.0702 0.4660001
vt 0.07019998 0.03399996
vt -0.07020005 0.03399998

usemtl customMaterial6
usemap customMaterial6
f 149/223/27 148/222/27 147/221/27
f 148/222/27 149/223/27 150/224/27
f 153/227/28 152/226/28 151/225/28
f 152/226/28 153/227/28 154/228/28
f 155/231/29 148/230/29 150/229/29
f 148/230/29 155/231/29 156/232/29
f 156/232/29 155/231/29 154/233/29
f 156/232/29 154/233/29 153/234/29
f 156/237/30 147/236/30 148/235/30
f 147/236/30 156/237/30 157/238/30
f 149/241/31 155/240/31 150/239/31
f 155/240/31 149/241/31 158/242/31
f 157/245/32 149/244/32 147/243/32
f 149/244/32 157/245/32 158/246/32
f 158/246/32 157/245/32 152/247/32
f 152/247/32 157/245/32 151/248/32
f 156/250/33 151/225/33 157/249/33
f 151/225/33 156/250/33 153/227/33
f 154/228/34 158/251/34 152/226/34
f 158/251/34 154/228/34 155/252/34
g guard_slant_27

v -0.07020004 1.081468E-13 -0.03399996
v 0.07019998 2.278604E-14 -0.03399996
v -0.07019998 1.081468E-13 -0.466
v 0.07020004 1.354937E-14 -0.466
v -0.07020003 0.11 -0.124
v -0.0702 0.11 -0.376
v 0.0702 0.11 -0.124
v 0.07020003 0.11 -0.376
v 0.07020004 0.055 -0.466
v 0.07019998 0.055 -0.03399996
v -0.07020004 0.055 -0.03399996
v -0.07019998 0.055 -0.466
vt 0.07020004 0.03399998
vt -0.07019999 0.03399996
vt 0.07019999 0.4660001
vt -0.07020004 0.466
vt 0.07020003 -0.124
vt 0.0702 -0.376
vt -0.0702 -0.124
vt -0.07020003 -0.376
vt 0.466 1.354937E-14
vt 0.03399996 2.278604E-14
vt -0.03399998 1.081468E-13
vt -0.4660001 1.081468E-13
vt 0.07020004 -0.03399998
vt -0.07019999 -0.03399996
vt 0.07019999 -0.4660001
vt -0.07020004 -0.466

usemtl customMaterial6
usemap customMaterial6
f 161/255/27 160/254/27 159/253/27
f 160/254/27 161/255/27 162/256/27
f 165/259/28 164/258/28 163/257/28
f 164/258/28 165/259/28 166/260/28
f 167/245/29 160/262/29 162/261/29
f 160/262/29 167/245/29 168/246/29
f 168/246/29 167/245/29 166/248/29
f 168/246/29 166/248/29 165/247/29
f 168/183/30 159/182/30 160/181/30
f 159/182/30 168/183/30 169/184/30
f 161/186/31 167/184/31 162/185/31
f 167/184/31 161/186/31 170/183/31
f 169/231/32 161/264/32 159/263/32
f 161/264/32 169/231/32 170/232/32
f 170/232/32 169/231/32 164/234/32
f 164/234/32 169/231/32 163/233/32
f 168/266/33 163/257/33 169/265/33
f 163/257/33 168/266/33 165/259/33
f 166/260/34 170/267/34 164/258/34
f 170/267/34 166/260/34 167/268/34
